<svg class="svg-icon" style="width: 1em;height: 1em;vertical-align: middle;fill: currentColor;overflow: hidden;" viewBox="0 0 1024 1024" version="1.1" xmlns="http://www.w3.org/2000/svg"><path d="M759.904 873.92a32 32 0 0 1 0 64H131.68a32 32 0 0 1 0-64z m6.848-432.384c17.984-1.568 120.224-7.328 154.24 60.512 21.664 43.2 15.04 106.912-15.936 155.008-33.216 51.52-88.32 79.52-155.776 79.52-3.232 0-6.464-0.064-9.76-0.192-2.72-0.128-5.12-1.12-7.584-1.856-60.672 69.184-155.2 104.512-281.664 104.512h-0.384c-129.184-0.096-225.376-36.992-285.92-109.664-90.496-108.64-64.896-255.424-63.776-261.632a32 32 0 0 1 31.488-26.208z m-27.424 64H160.608c-2.08 41.024 1.504 121.92 52.864 183.264 47.84 57.152 127.36 86.176 236.448 86.24h0.384c109.568 0 189.312-28.992 237.024-86.208 51.168-61.376 54.336-142.336 52-183.296z m64.16 0c1.92 39.168-0.96 102.88-29.696 164.832 41.216-6.592 64.832-28.416 77.44-48 20.64-31.936 22.592-71.648 12.608-91.616-8.224-16.32-35.744-23.104-60.352-25.216zM243.84 78.176a32 32 0 1 1 53.12 35.68l-6.016 8.8c-14.912 21.536-26.656 38.528-26.656 75.232 0 36.8 11.776 53.792 26.688 75.328 16.928 24.48 38.048 54.976 38.048 111.68a32 32 0 0 1-64 0c0-36.736-11.776-53.728-26.656-75.264-16.992-24.48-38.08-54.976-38.08-111.744 0-56.64 21.056-87.136 38.016-111.648z m167.36 0a32 32 0 0 1 53.152 35.648l-6.176 9.024c-14.88 21.472-26.56 38.464-26.56 75.04 0 36.8 11.744 53.792 26.656 75.328 16.96 24.48 38.08 54.944 38.08 111.68a32 32 0 0 1-64 0c0-36.704-11.776-53.728-26.688-75.2-16.96-24.544-38.08-55.008-38.08-111.808 0-56.544 21.024-87.008 37.952-111.456z m167.36 0a32 32 0 0 1 53.12 35.712l-6.016 8.8c-14.912 21.536-26.688 38.528-26.688 75.2 0 36.8 11.776 53.792 26.688 75.328 16.96 24.48 38.08 54.944 38.08 111.68a32 32 0 0 1-64 0c0-36.704-11.776-53.728-26.688-75.2-16.96-24.544-38.08-55.008-38.08-111.808 0-56.704 21.12-87.168 38.08-111.648z"  /></svg>