<svg class="svg-icon" style="width: 1em; height: 1em;vertical-align: middle;fill: currentColor;overflow: hidden;" viewBox="0 0 1024 1024" version="1.1" xmlns="http://www.w3.org/2000/svg"><path d="M599.2916 517.900384 203.043904 517.900384c-14.145162 0-25.611308 11.466146-25.611308 25.611308s11.467169 25.611308 25.611308 25.611308l396.247696 0c14.145162 0 25.611308-11.466146 25.611308-25.611308S613.436762 517.900384 599.2916 517.900384zM715.832873 284.812721l-512.788969 0c-14.145162 0-25.611308 11.467169-25.611308 25.611308s11.467169 25.611308 25.611308 25.611308l512.788969 0c14.145162 0 25.611308-11.467169 25.611308-25.611308S729.979058 284.812721 715.832873 284.812721zM715.832873 401.356041l-512.788969 0c-14.145162 0-25.611308 11.467169-25.611308 25.611308s11.467169 25.611308 25.611308 25.611308l512.788969 0c14.145162 0 25.611308-11.467169 25.611308-25.611308S729.979058 401.356041 715.832873 401.356041zM846.280878 521.773598c0.031722-0.521886 0.053212-1.045819 0.053212-1.575892l0-293.914006c0-38.415938-31.251771-69.668733-69.666686-69.668733L142.211421 156.614967c-38.415938 0-69.668733 31.252795-69.668733 69.668733l0 401.369344c0 38.414915 31.252795 69.667709 69.668733 69.667709l110.010533 0c10.17064 0 18.445094 8.274454 18.445094 18.444071l0 151.48411 193.053877-165.484985c3.344165-2.866281 7.611352-4.444219 12.015661-4.444219l193.474456 0c2.753717 0 5.40408-0.440022 7.890714-1.24434 16.888645 58.233286 70.706365 100.92869 134.314055 100.92869 77.090772 0 139.809209-62.721507 139.809209-139.817396C951.225021 592.126922 906.557706 537.304316 846.280878 521.773598zM672.018995 646.252657c-0.921999-0.100284-1.858324-0.155543-2.807952-0.155543L475.736587 646.097114c-16.619516 0-32.724309 5.954619-45.348837 16.773012l-108.497063 93.004207L321.890686 715.764823c0-38.414915-31.253818-69.667709-69.668733-69.667709L142.211421 646.097114c-10.17064 0-18.445094-8.274454-18.445094-18.444071L123.766326 226.2837c0-10.17064 8.274454-18.445094 18.445094-18.445094l634.455983 0c10.169617 0 18.443048 8.274454 18.443048 18.445094L795.110451 518.328126C729.236138 526.014178 677.194878 579.658959 672.018995 646.252657zM811.415812 745.781464c-48.853661 0-88.598874-39.743166-88.598874-88.593757 0-48.849568 39.745213-88.591711 88.598874-88.591711 48.845475 0 88.585571 39.742143 88.585571 88.591711C900.001383 706.038298 860.261287 745.781464 811.415812 745.781464zM838.154803 607.02319l-42.680055 52.515051-15.21247-18.029632c-9.121751-10.809183-25.279756-12.178367-36.09201-3.057639-10.810207 9.121751-12.17939 25.28078-3.057639 36.09201l55.101969 65.303308 81.691557-100.517321c8.921183-10.977006 7.255241-27.107381-3.722788-36.028565C863.207385 594.380242 847.075986 596.044138 838.154803 607.02319z"  /></svg>