<svg class="svg-icon" style="width: 1em;height: 1em;vertical-align: middle;fill: currentColor;overflow: hidden;" viewBox="0 0 1024 1024" version="1.1" xmlns="http://www.w3.org/2000/svg"><path d="M128 0h768Q1024 0 1024 128v768q0 128-128 128h-768Q0 1024 0 896v-768Q0 0 128 0z" fill="#F87208" /><path d="M820.184615 421.809231l-291.643077-216.615385a39.384615 39.384615 0 0 0-7.286153-5.513846 19.692308 19.692308 0 0 0-26.781539 7.68l-289.673846 216.615385a23.236923 23.236923 0 0 0-3.150769 31.704615 19.692308 19.692308 0 0 0 28.947692 7.68l19.692308-15.36v355.052308A23.630769 23.630769 0 0 0 273.132308 827.076923h460.012307H273.526154a19.692308 19.692308 0 0 0 5.907692 0h475.569231a23.630769 23.630769 0 0 0 22.843077-24.024615V450.363077l15.36 10.830769a19.692308 19.692308 0 0 0 28.947692-8.270769 24.418462 24.418462 0 0 0-1.969231-31.113846z m-179.396923 312.910769H377.107692a34.855385 34.855385 0 0 1-30.523077-19.692308 37.612308 37.612308 0 0 1 0-37.021538l131.741539-240.049231a34.461538 34.461538 0 0 1 61.243077 0l131.938461 240.049231a37.612308 37.612308 0 0 1 4.726154 18.510769 36.430769 36.430769 0 0 1-35.446154 38.203077z" fill="#FFFFFF" /><path d="M509.046154 691.003077a21.661538 21.661538 0 0 1 0-43.323077 21.661538 21.661538 0 0 1 0 43.323077zM509.243077 631.335385c-6.695385 0-20.676923-72.270769-20.676923-90.978462s4.529231-32.492308 20.873846-32.492308 19.692308 13.390769 19.692308 32.492308-13.193846 90.978462-19.889231 90.978462z" fill="#FFFFFF" /></svg>