<?xml version="1.0" encoding="iso-8859-1"?>
<!-- Uploaded to: SVG Repo, www.svgrepo.com, Generator: SVG Repo Mixer Tools -->
<svg version="1.1" id="Layer_1" xmlns="http://www.w3.org/2000/svg" xmlns:xlink="http://www.w3.org/1999/xlink" 
	 viewBox="0 0 512 512" xml:space="preserve">
<path style="fill:#8CCFDE;" d="M8.18,356.774V155.226c0-41.945,34.003-75.949,75.949-75.949h343.743
	c41.945,0,75.949,34.003,75.949,75.949v201.547c0,41.945-34.003,75.949-75.949,75.949H84.128
	C42.183,432.723,8.18,398.72,8.18,356.774z"/>
<path style="fill:#0069A3;" d="M84.129,400.005c-23.837,0-43.231-19.393-43.231-43.231V155.226
	c0-23.838,19.393-43.231,43.231-43.231h343.742c23.837,0,43.231,19.393,43.231,43.231v201.547c0,23.838-19.393,43.231-43.231,43.231
	H84.129z"/>
<rect x="8.18" y="205.472" style="fill:#F5DF5D;" width="495.642" height="101.067"/>
<path style="opacity:0.2;enable-background:new    ;" d="M442.463,418.132H98.72c-41.945,0-75.949-34.003-75.949-75.949V140.634
	c0-17.252,5.762-33.153,15.453-45.905C19.971,108.6,8.18,130.533,8.18,155.225v201.548c0,41.945,34.003,75.949,75.949,75.949
	h343.743c24.694,0,46.625-11.792,60.497-30.044C475.617,412.37,459.716,418.132,442.463,418.132z"/>
<circle style="opacity:0.2;enable-background:new    ;" cx="245.672" cy="266.231" r="142.969"/>
<circle style="fill:#FFFFFF;" cx="255.902" cy="256.001" r="142.969"/>
<path style="opacity:0.2;enable-background:new    ;" d="M266.575,388.292c-78.96,0-142.969-64.009-142.969-142.969
	c0-36.764,13.881-70.283,36.683-95.613c-29.071,26.169-47.356,64.09-47.356,106.285c0,78.96,64.009,142.969,142.969,142.969
	c42.195,0,80.116-18.284,106.286-47.356C336.858,374.411,303.339,388.292,266.575,388.292z"/>
<path d="M255.902,104.849c-83.343,0-151.148,67.805-151.148,151.148s67.805,151.149,151.148,151.149
	c83.344,0,151.149-67.805,151.149-151.149C407.05,172.653,339.246,104.849,255.902,104.849z M255.902,390.786
	c-74.322,0-134.788-60.466-134.788-134.789s60.465-134.788,134.788-134.788c74.322,0,134.789,60.466,134.789,134.788
	C390.691,330.32,330.225,390.786,255.902,390.786z M176.403,220.782h-23.11c-3.236,0-5.731,2.496-5.731,5.731v53.802
	c0,3.143,2.495,5.638,5.731,5.638c3.143,0,5.64-2.496,5.64-5.638v-17.38h14.329l15.716,20.061c1.295,1.756,2.958,2.958,5.547,2.958
	c2.772,0,5.454-2.127,5.454-5.27c0-1.756-0.741-2.958-1.849-4.345l-12.387-15.623c8.69-2.681,14.699-8.967,14.699-19.32v-0.185
	c0-5.64-1.941-10.447-5.363-13.959C190.917,223.186,184.538,220.782,176.403,220.782z M188.883,242.044
	c0,6.563-5.177,10.816-13.312,10.816h-16.64v-21.724h16.547c8.413,0,13.405,3.79,13.405,10.724V242.044z M427.871,71.097H84.129
	C37.74,71.097,0,108.837,0,155.226v201.547c0,46.389,37.74,84.129,84.129,84.129h343.742c46.388,0,84.129-37.74,84.129-84.129
	V155.226C512,108.837,474.259,71.097,427.871,71.097z M495.641,356.774c0,37.368-30.401,67.77-67.77,67.77H84.129
	c-37.369,0-67.77-30.401-67.77-67.77V155.226c0-37.368,30.401-67.77,67.77-67.77h343.742c37.369,0,67.77,30.401,67.77,67.77V356.774
	z M248.88,224.48c-1.295-2.865-3.513-4.622-6.749-4.622h-0.555c-3.236,0-5.547,1.757-6.84,4.622l-24.035,53.617
	c-0.462,0.925-0.741,1.757-0.741,2.589c0,2.958,2.311,5.27,5.27,5.27c2.404,0,4.344-1.295,5.269-3.606l5.454-12.48h31.43l5.27,12.11
	c1.016,2.404,2.865,3.975,5.547,3.975c3.05,0,5.361-2.404,5.361-5.454c0-0.739-0.185-1.572-0.648-2.404L248.88,224.48z
	 M230.299,259.794l11.371-26.162l11.371,26.162H230.299z M328.292,224.665c-0.832-2.681-2.865-4.529-5.731-4.529h-0.832
	c-2.866,0-4.807,1.849-5.732,4.529l-14.606,44.281l-14.884-44.466c-0.739-2.404-2.865-4.16-5.639-4.16
	c-3.143,0-5.825,2.404-5.825,5.547c0,0.739,0.185,1.572,0.462,2.218l19.136,53.618c1.11,2.958,3.144,4.715,5.917,4.715h1.11
	c2.773,0,4.899-1.756,5.917-4.715l14.421-42.247l14.422,42.247c1.016,2.958,3.05,4.715,5.824,4.715h1.109
	c2.773,0,4.9-1.849,5.917-4.715l19.136-53.618c0.278-0.647,0.555-1.572,0.555-2.311c0-3.05-2.588-5.454-5.64-5.454
	c-2.772,0-4.714,1.757-5.546,4.068l-14.884,44.557L328.292,224.665z"/>
</svg>