<svg class="svg-icon" style="width: 1em; height: 1em;vertical-align: middle;fill: currentColor;overflow: hidden;" viewBox="0 0 1024 1024" version="1.1" xmlns="http://www.w3.org/2000/svg"><path d="M488 656h-320a24 24 0 0 0 0 48h320a24 24 0 0 0 0-48z m240-433.76h-256a24 24 0 0 0 0 48h256a24 24 0 0 0 0-48zM360.32 160a24 24 0 0 0-16.96 7.04l-107.52 107.52L184.96 224a24 24 0 0 0-42.08 9.6 24.16 24.16 0 0 0 8.16 24l67.84 67.84a24 24 0 0 0 33.92 0l124.48-124.48a23.68 23.68 0 0 0 5.12-26.08 23.84 23.84 0 0 0-22.08-14.88z m368 286.4h-256a24 24 0 0 0 0 48h256a24 24 0 0 0 0-48zM294.4 384a24 24 0 0 0-16.96 7.04l-45.28 45.28-45.28-45.28a23.84 23.84 0 0 0-39.04 7.84 23.68 23.68 0 0 0 5.12 26.08l45.28 45.28-45.28 45.28a23.68 23.68 0 0 0-5.12 26.08 23.84 23.84 0 0 0 39.04 7.84l45.28-45.28 45.28 45.28a24 24 0 1 0 33.92-33.92l-45.28-45.28 45.28-45.28A24 24 0 0 0 294.4 384z" fill="" /><path d="M536 936A24 24 0 0 1 512 960H128a64 64 0 0 1-64-64V128a64 64 0 0 1 64-64h88a24 24 0 0 1 0 48H128a16 16 0 0 0-16 16v768a16 16 0 0 0 16 16h384a24 24 0 0 1 24 24zM832 128v400a24 24 0 0 1-48 0V128a16 16 0 0 0-16-16h-88a24 24 0 0 1 0-48H768a64 64 0 0 1 64 64z" fill="" /><path d="M955.36 932.64a16 16 0 0 1-22.56 22.56l-96-96a160 160 0 1 1 22.56-22.56zM608 736a128 128 0 1 0 128-128 128 128 0 0 0-128 128z" fill="#0070FF" /></svg>