<svg class="svg-icon" style="width: 1em;height: 1em;vertical-align: middle;fill: currentColor;overflow: hidden;" viewBox="0 0 1024 1024" version="1.1" xmlns="http://www.w3.org/2000/svg"><path d="M814.545455 570.181818a104.727273 104.727273 0 0 1 104.727272 104.727273v139.636364a104.727273 104.727273 0 0 1-104.727272 104.727272h-558.545455a104.727273 104.727273 0 0 1-104.727273-104.727272v-139.636364a104.727273 104.727273 0 0 1 104.727273-104.727273z m0 69.818182h-558.545455a34.909091 34.909091 0 0 0-34.909091 34.909091v139.636364c0 19.269818 15.639273 34.909091 34.909091 34.90909h558.545455a34.909091 34.909091 0 0 0 34.90909-34.90909v-139.636364a34.909091 34.909091 0 0 0-34.90909-34.909091z m0-488.727273a104.727273 104.727273 0 0 1 104.727272 104.727273v139.636364a104.727273 104.727273 0 0 1-104.727272 104.727272h-558.545455A104.727273 104.727273 0 0 1 151.272727 395.636364v-139.636364A104.727273 104.727273 0 0 1 256 151.272727z m0 69.818182h-558.545455a34.909091 34.909091 0 0 0-34.909091 34.909091v139.636364c0 19.269818 15.639273 34.909091 34.909091 34.909091h558.545455a34.909091 34.909091 0 0 0 34.90909-34.909091v-139.636364a34.909091 34.909091 0 0 0-34.90909-34.909091z" fill="#979797" /></svg>