<?xml version="1.0" standalone="no"?>
<!DOCTYPE svg PUBLIC "-//W3C//DTD SVG 20010904//EN"
 "http://www.w3.org/TR/2001/REC-SVG-20010904/DTD/svg10.dtd">
<svg version="1.0" xmlns="http://www.w3.org/2000/svg"
 width="711.000000pt" height="400.000000pt" viewBox="0 0 711.000000 400.000000"
 preserveAspectRatio="xMidYMid meet">

<g transform="translate(0.000000,400.000000) scale(0.100000,-0.100000)"
fill="#000000" stroke="none">
<path d="M360 2060 l0 -1080 3210 0 3210 0 0 1080 0 1080 -3210 0 -3210 0 0
-1080z m6350 0 l0 -1010 -3140 0 -3140 0 0 1010 0 1010 3140 0 3140 0 0 -1010z"/>
<path d="M6385 2992 c-16 -8 -37 -18 -45 -22 -8 -4 -15 -20 -15 -35 0 -32 28
-47 64 -34 18 7 22 15 19 33 -4 18 1 27 19 35 27 12 31 41 6 40 -10 0 -31 -8
-48 -17z m-5 -62 c0 -5 -7 -10 -15 -10 -8 0 -15 5 -15 10 0 6 7 10 15 10 8 0
15 -4 15 -10z"/>
<path d="M4732 2988 c-16 -16 -15 -33 2 -48 8 -6 12 -18 9 -26 -7 -20 49 -19
93 2 32 15 64 48 64 66 0 17 -36 6 -62 -19 l-28 -27 0 26 c0 36 -51 53 -78 26z
m39 -21 c-1 -12 -15 -9 -19 4 -3 6 1 10 8 8 6 -3 11 -8 11 -12z"/>
<path d="M4332 2859 c-31 -12 -27 -60 6 -74 19 -8 22 -17 22 -65 0 -65 9 -83
40 -78 17 2 27 17 45 66 13 35 25 66 28 68 3 3 16 -26 28 -66 23 -69 24 -71
54 -68 l30 3 3 113 3 112 -26 0 c-24 0 -25 -2 -26 -67 l-1 -68 -22 65 c-17 48
-27 65 -41 65 -14 0 -24 -17 -41 -65 l-22 -65 -1 58 c-1 52 -3 58 -27 67 -14
6 -26 10 -27 9 -1 0 -12 -4 -25 -10z m38 -34 c0 -8 -7 -15 -15 -15 -8 0 -15 7
-15 15 0 8 7 15 15 15 8 0 15 -7 15 -15z"/>
<path d="M4707 2846 c-42 -39 -35 -52 28 -59 66 -7 75 -12 75 -42 0 -16 -7
-25 -24 -29 -28 -7 -40 -31 -26 -55 13 -24 43 -31 72 -17 20 10 23 20 26 73 3
55 1 63 -20 76 -13 8 -41 18 -63 22 -31 5 -36 9 -23 16 10 6 26 5 43 -1 33
-12 56 -13 75 0 27 17 -5 33 -73 37 -57 3 -67 0 -90 -21z m108 -176 c-5 -8
-11 -8 -17 -2 -6 6 -7 16 -3 22 5 8 11 8 17 2 6 -6 7 -16 3 -22z"/>
<path d="M5030 2863 c-19 -7 -60 -44 -60 -55 0 -14 43 -9 62 9 25 22 77 21 94
-2 19 -26 18 -110 -2 -129 -8 -9 -31 -16 -50 -16 -27 0 -34 4 -34 20 0 11 6
20 14 20 16 0 46 26 46 40 0 18 -32 40 -59 40 -41 0 -51 -17 -51 -87 l0 -63
83 0 c51 0 88 5 95 12 7 7 12 44 12 94 0 77 -2 84 -26 103 -26 20 -88 27 -124
14z m28 -114 c-2 -6 -8 -10 -13 -10 -5 0 -11 4 -13 10 -2 6 4 11 13 11 9 0 15
-5 13 -11z"/>
<path d="M5310 2852 c-28 -23 -20 -59 16 -68 33 -8 30 -35 -6 -56 -38 -22 -41
-63 -6 -79 36 -17 73 -4 83 28 l10 28 33 -33 c20 -21 40 -32 54 -30 20 3 21
10 24 116 l3 112 -26 0 c-25 0 -25 -1 -25 -80 0 -44 -2 -80 -3 -80 -2 0 -18 7
-35 16 -28 14 -32 20 -32 58 0 69 -46 104 -90 68z m45 -21 c7 -12 -12 -24 -25
-16 -11 7 -4 25 10 25 5 0 11 -4 15 -9z m-9 -146 c-3 -9 -11 -13 -16 -10 -8 5
-7 11 1 21 14 18 24 11 15 -11z"/>
<path d="M5650 2766 c0 -94 2 -106 20 -119 23 -16 64 -12 81 9 16 19 1 53 -27
60 -23 6 -24 10 -24 80 0 72 -1 74 -25 74 l-25 0 0 -104z m68 -87 c-2 -6 -8
-10 -13 -10 -5 0 -11 4 -13 10 -2 6 4 11 13 11 9 0 15 -5 13 -11z"/>
<path d="M5862 2863 c-7 -2 -17 -14 -23 -25 -8 -15 -7 -24 7 -39 9 -10 23 -19
30 -19 9 0 14 -20 16 -67 3 -68 3 -68 32 -68 27 0 31 5 50 62 12 34 24 65 28
68 4 4 16 -25 28 -64 20 -67 22 -71 50 -71 37 0 42 16 38 135 -3 85 -4 90 -25
93 -22 3 -23 0 -24 -70 l0 -73 -22 70 c-18 55 -27 70 -42 70 -16 0 -25 -14
-42 -65 l-21 -65 -1 52 c-1 42 -5 55 -23 67 -23 16 -34 18 -56 9z m38 -38 c0
-8 -7 -15 -15 -15 -8 0 -15 7 -15 15 0 8 7 15 15 15 8 0 15 -7 15 -15z"/>
<path d="M6233 2855 c-27 -19 -31 -76 -8 -95 11 -9 13 -16 5 -24 -5 -5 -10
-29 -10 -53 l0 -43 85 0 c110 0 117 9 113 136 -3 83 -4 89 -25 92 -21 3 -22 0
-25 -90 l-3 -93 -47 -3 c-45 -3 -48 -2 -48 22 0 19 7 27 25 32 34 8 32 34 -2
34 l-28 1 28 20 c15 11 27 26 27 32 -1 38 -53 56 -87 32z m52 -24 c7 -12 -12
-24 -25 -16 -11 7 -4 25 10 25 5 0 11 -4 15 -9z"/>
<path d="M730 2065 l0 -485 1750 0 1750 0 0 485 0 485 -1750 0 -1750 0 0 -485z
m616 341 c78 -36 99 -73 99 -172 0 -72 -3 -85 -28 -123 -45 -68 -84 -81 -259
-81 l-148 0 0 -146 0 -145 -52 3 -53 3 0 275 0 275 50 0 50 0 3 -92 3 -93 112
0 c173 0 215 19 224 103 6 50 -15 99 -50 119 -15 9 -83 14 -209 16 l-188 4 0
23 c0 56 -3 55 204 55 180 0 194 -2 242 -24z m2604 -96 l0 -70 40 0 c39 0 40
-1 40 -35 0 -34 -1 -35 -40 -35 l-40 0 0 -175 0 -175 27 -11 c14 -5 32 -8 40
-5 9 4 13 -5 13 -34 l0 -40 -58 0 c-109 0 -122 28 -122 273 l0 167 -35 0 c-33
0 -35 2 -35 35 0 33 2 35 35 35 l35 0 0 70 0 70 50 0 50 0 0 -70z m-1775 -78
c88 -45 128 -115 129 -222 1 -96 -17 -159 -62 -211 -48 -56 -100 -79 -185 -79
-146 0 -234 83 -245 231 -13 191 95 316 263 306 34 -3 78 -13 100 -25z m1401
13 c102 -30 157 -116 157 -245 0 -129 -35 -204 -117 -250 -39 -23 -64 -30
-104 -30 -57 0 -109 17 -131 43 -24 30 -31 18 -31 -53 l0 -70 -45 0 -45 0 0
300 0 300 45 0 c44 0 45 -1 45 -31 l0 -31 35 31 c20 17 48 33 63 37 15 3 32 7
37 9 21 7 43 5 91 -10z m-1806 -40 l0 -45 -37 0 c-21 0 -53 -9 -71 -20 -53
-32 -62 -68 -62 -245 l0 -155 -45 0 -45 0 0 250 0 250 45 0 c44 0 45 -1 45
-32 l0 -32 28 26 c39 37 62 47 105 48 l37 0 0 -45z m980 30 c16 -8 35 -24 43
-35 13 -19 15 -19 27 -4 45 54 183 73 247 34 61 -37 68 -62 71 -287 l3 -203
-50 0 -51 0 0 195 c0 182 -1 196 -20 215 -31 31 -109 28 -149 -6 -43 -35 -51
-77 -51 -251 l0 -153 -44 0 -45 0 -3 194 c-3 174 -5 196 -22 215 -27 30 -103
29 -141 -1 -47 -37 -55 -72 -55 -248 l0 -160 -50 0 -50 0 0 250 0 250 50 0
c50 0 50 0 50 -32 l0 -32 28 26 c15 14 36 30 47 36 29 16 131 14 165 -3z"/>
<path d="M1990 2163 c-104 -54 -113 -283 -14 -348 40 -26 125 -25 161 1 48 35
68 88 68 179 0 88 -13 126 -57 158 -37 28 -114 33 -158 10z"/>
<path d="M3431 2162 c-48 -26 -75 -82 -79 -165 -8 -127 41 -197 136 -197 56 0
95 21 124 67 19 32 23 51 23 118 0 125 -36 179 -127 191 -31 4 -52 0 -77 -14z"/>
<path d="M4310 2066 l0 -486 105 0 105 0 0 175 0 175 143 0 c273 0 368 56 398
235 30 174 -43 322 -179 366 -24 8 -133 14 -304 16 l-268 4 0 -485z m486 298
c44 -21 64 -60 64 -124 0 -114 -42 -143 -217 -148 l-123 -4 0 146 0 146 121 0
c91 0 129 -4 155 -16z"/>
<path d="M5360 2426 c-122 -27 -176 -83 -204 -208 l-6 -28 95 0 c77 0 95 3 95
15 0 31 53 76 97 82 90 12 153 -20 153 -77 0 -43 -28 -56 -171 -78 -151 -23
-211 -49 -254 -111 -27 -39 -30 -50 -30 -125 0 -73 3 -87 27 -123 40 -61 103
-88 203 -88 85 1 129 16 193 70 16 14 32 25 35 25 2 0 7 -18 11 -40 l6 -40
105 0 c111 0 121 5 88 43 -16 17 -19 50 -23 286 -5 252 -6 268 -27 301 -53 86
-237 131 -393 96z m230 -433 c0 -110 -49 -164 -154 -171 -59 -4 -67 -2 -90 21
-18 19 -26 37 -26 62 0 54 40 90 116 104 32 6 77 17 99 25 22 7 43 14 48 15 4
0 7 -25 7 -56z"/>
<path d="M5850 2431 c0 -6 43 -148 96 -318 l96 -307 -27 -99 c-15 -55 -29
-106 -32 -113 -4 -11 14 -14 96 -14 l100 0 15 53 c42 144 216 790 216 798 0 5
-44 9 -98 9 l-98 0 -34 -130 c-19 -71 -37 -130 -40 -130 -3 0 -23 57 -45 128
l-40 127 -103 3 c-63 2 -102 -1 -102 -7z"/>
</g>
</svg>
